<?xml version="1.0" encoding="utf-8"?>
<!-- Generator: Adobe Illustrator 25.2.0, SVG Export Plug-In . SVG Version: 6.00 Build 0)  -->
<svg version="1.1" id="Layer_1" xmlns="http://www.w3.org/2000/svg" xmlns:xlink="http://www.w3.org/1999/xlink" x="0px" y="0px"
	 viewBox="0 0 814.67 204.67" style="enable-background:new 0 0 814.67 204.67;" xml:space="preserve">
<style type="text/css">
	.st0{fill:#091133;}
	.st1{fill:#3448C9;}
</style>
<g>
	<g>
		<g>
			<path class="st0" d="M789.73,146.86c-8.02,0-15.46,0-23.33,0c0-1.7,0-3.15,0-4.59c0-11,0.01-22-0.01-33
				c0-1.61,0.01-3.24-0.23-4.82c-0.77-5.08-3.64-7.48-8.78-7.5c-2.46-0.01-4.8,0.32-7.04,2.26c0,15.6,0,31.4,0,47.09
				c-3.06,0.98-18.32,1.18-23.45,0.32c0-1.34,0-2.77,0-4.2c0-10.73,0-21.46,0-32.2c0-1.21,0.02-2.42-0.02-3.62
				c-0.15-3.62-0.9-6.97-4.52-8.79c-3.27-1.64-7.46-1.07-11.28,1.65c0,15.53,0,31.32,0,47.38c-7.8,0-15.24,0-22.67,0
				c-0.82-2.9-1.03-62.26-0.18-67.38c6.91-0.56,13.31,1.56,19.83,4.22c11.58-6.08,23.32-7.41,35.27,0.15
				c3.95-2.57,8.38-4.27,13.24-4.89c5.83-0.75,11.54-0.27,17.1,1.51c9.6,3.08,14.61,9.97,15.81,19.79c0.27,2.25,0.26,4.55,0.27,6.83
				c0.02,11.81,0.01,23.61,0.01,35.42C789.73,143.81,789.73,145.13,789.73,146.86z"/>
		</g>
		<g>
			<path class="st0" d="M454.02,79.38c7.28-0.32,13.64,1.63,19.95,4.31c11.73-6.13,23.47-7.38,35.35,0.16
				c5.89-4.06,12.63-5.6,19.74-5.14c3.71,0.24,7.49,0.87,11.02,1.99c8.77,2.78,13.63,9.12,15.11,18.09c0.39,2.37,0.6,4.8,0.61,7.21
				c0.06,12.61,0.04,25.22,0.03,37.83c0,0.92-0.13,1.83-0.22,3.02c-7.61,0-15.05,0-22.96,0c-0.08-1.39-0.22-2.8-0.22-4.21
				c-0.02-10.73,0-21.46-0.02-32.19c0-1.87-0.06-3.76-0.3-5.62c-0.72-5.55-3.62-8.09-9.2-7.82c-2.07,0.1-4.1,0.82-6.5,1.34
				c0,16.31,0,32.21,0,48.25c-4.09,0.98-7.82,0.4-11.51,0.51c-3.74,0.1-7.48,0.02-11.71,0.02c-0.09-1.62-0.23-3.03-0.23-4.43
				c-0.02-10.87,0-21.73-0.02-32.6c0-1.74-0.02-3.5-0.27-5.22c-0.83-5.87-4.1-8.48-9.99-7.85c-1.79,0.19-3.52,0.98-5.59,1.58
				c0,16.25,0,32.15,0,48.28c-7.89,0-15.34,0-23.07,0C454.02,124.43,454.02,102.12,454.02,79.38z"/>
		</g>
		<g>
			<path class="st0" d="M415.55,81.59c0-8.55,0-16.68,0-25.02c7.75-2.22,15.16-4.35,22.98-6.59c0,32.79,0,65.05,0,97.73
				c-6.85,0.41-13.07-1.23-18.62-3.82c-5.3,1.44-10.13,3.03-15.08,4.04c-5.88,1.21-11.79,0.72-17.46-1.28
				c-9.8-3.45-16.11-10.37-19.21-20.19c-2.66-8.42-2.7-16.94-0.03-25.35c5.8-18.33,22.84-23.85,36.24-22.14
				C407.89,79.42,411.35,80.59,415.55,81.59z M415.31,99.7c-8-4.56-16.57-3.38-21.4,2.72c-5,6.31-4.71,17.69,0.58,23.59
				c4.66,5.2,13.61,5.69,20.82,1.01C415.31,118.05,415.31,108.96,415.31,99.7z"/>
		</g>
		<g>
			<path class="st0" d="M283.39,125.97c0,6,0,11.71,0,18.03c-2.91,0.78-5.94,1.73-9.04,2.39c-10.45,2.24-20.92,2.89-31.5,0.64
				c-18.71-3.97-32.25-18.66-34.64-37.64c-1.5-11.95,0.09-23.28,6.46-33.65c6.72-10.94,16.85-17.09,29.2-19.53
				c12.08-2.39,24.01-0.97,35.73,2.58c0.76,0.23,1.48,0.58,2.45,0.98c0,5.84,0,11.67,0,17.81c-1-0.18-1.87-0.29-2.71-0.49
				c-9.24-2.16-18.52-3.17-27.81-0.41c-19.97,5.92-22.54,26.59-15.44,38.38c4.47,7.42,11.43,11.09,19.65,12.65
				c8.31,1.58,16.55,0.63,24.72-1.2C281.34,126.33,282.23,126.19,283.39,125.97z"/>
		</g>
		<g>
			<path class="st0" d="M331.44,107.11c0.6-4.49-0.98-7.57-4.93-9.06c-1.84-0.69-3.94-1.16-5.87-1.03
				c-6.41,0.42-12.79,1.13-19.18,1.77c-1.43,0.14-2.84,0.45-4.56,0.73c0-5.67,0-10.98,0-16.85c2.71-0.69,5.49-1.58,8.34-2.1
				c9.26-1.68,18.58-2.95,27.96-1.13c3.12,0.6,6.29,1.51,9.15,2.89c7.42,3.58,11.76,9.55,12.63,17.85c0.18,1.73,0.35,3.47,0.35,5.21
				c0.03,12.74,0.02,25.48,0.01,38.22c0,1.19-0.11,2.37-0.17,3.5c-4.45,1.3-9.64,0.4-18.84-3.12c-4.17,1.24-8.09,2.61-12.11,3.55
				c-5.13,1.2-10.36,1.28-15.58,0.35c-14.67-2.62-18.65-14.15-17.06-25.16c1.23-8.52,6.61-13.58,14.58-15.93
				c7.33-2.17,14.78-2.44,22.22-0.34C329.37,106.74,330.41,106.9,331.44,107.11z M331.8,121.59c-4.21-1.95-8.28-2.02-12.34-0.82
				c-2.67,0.79-4.02,2.85-4.01,5.37c0,2.53,1.37,4.34,4.22,5.13c4.08,1.13,8.12,1.04,12.14-0.91
				C331.8,127.48,331.8,124.72,331.8,121.59z"/>
		</g>
		<g>
			<path class="st0" d="M672.55,147.78c-7.03,0.27-13.43-1.4-19.36-4.17c-4.2,1.31-8.09,2.83-12.12,3.69
				c-3.5,0.75-7.17,1.12-10.76,1.05c-13.06-0.26-21.25-8-22.55-21.02c-0.16-1.6-0.24-3.21-0.24-4.82
				c-0.02-13.15-0.02-26.3-0.01-39.45c0-0.8,0.11-1.59,0.21-2.98c7.55-0.36,15.08-0.13,23.1-0.12c0,1.88,0,3.32,0,4.76
				c0,11.14-0.03,22.27,0.01,33.41c0.03,9.37,3.98,12.87,13.3,11.9c0.8-0.08,1.59-0.23,2.36-0.44c0.89-0.24,1.75-0.58,3.05-1.03
				c0-16.06,0-32.09,0-48.38c7.93,0,15.36,0,22.77,0C673.17,83.15,673.4,142.28,672.55,147.78z"/>
		</g>
		<g>
			<path class="st0" d="M570.19,80.11c7.66,0,14.99,0,22.3,0c0.93,2.89,1.17,61.67,0.25,66.76c-7.39,0-14.83,0-22.55,0
				C570.19,124.71,570.19,102.66,570.19,80.11z"/>
		</g>
		<g>
			<path class="st0" d="M595.05,59.2c-0.02,7.88-5.48,13.18-13.5,13.1c-7.64-0.08-13.16-5.62-13.12-13.18
				c0.03-7.54,5.62-13.13,13.2-13.22C589.39,45.81,595.06,51.44,595.05,59.2z"/>
		</g>
	</g>
	<g>
		<g>
			<g>
				<g>
					<path class="st1" d="M103.05,187.08c-2.54,0-5.07-0.65-7.34-1.96L35.6,150.41c-4.52-2.61-7.34-7.48-7.34-12.71V68.28
						c0-5.23,2.81-10.09,7.34-12.71l60.12-34.71c4.52-2.61,10.15-2.61,14.67,0l60.12,34.71c4.52,2.61,7.34,7.48,7.34,12.71v69.42
						c0,5.23-2.81,10.09-7.34,12.71l-60.12,34.71C108.13,186.43,105.59,187.08,103.05,187.08z M103.05,30.48
						c-1.13,0-2.26,0.29-3.27,0.87L42.64,64.34c-2.01,1.16-3.27,3.33-3.27,5.65v65.99c0,2.32,1.25,4.49,3.27,5.65l57.15,32.99
						c2.01,1.17,4.52,1.17,6.53,0l57.15-32.99c2.01-1.16,3.27-3.33,3.27-5.65V70c0-2.33-1.25-4.49-3.27-5.65l-57.15-32.99
						C105.31,30.77,104.18,30.48,103.05,30.48z"/>
				</g>
			</g>
		</g>
		<g>
			<g>
				<g>
					<g>
						<g>
							<path class="st1" d="M88.07,159.19l11.23,6.48c0.42,0.24,0.94-0.06,0.94-0.54v-59.81c0-0.22-0.12-0.43-0.31-0.54L88.7,98.29
								c-0.42-0.24-0.94,0.06-0.94,0.54v59.81C87.76,158.87,87.88,159.08,88.07,159.19z"/>
						</g>
					</g>
					<g>
						<g>
							<path class="st1" d="M47.5,135.76l11.23,6.48c0.42,0.24,0.94-0.06,0.94-0.54V81.89c0-0.22-0.12-0.43-0.31-0.54l-11.23-6.48
								c-0.42-0.24-0.94,0.06-0.94,0.54v59.81C47.19,135.44,47.31,135.65,47.5,135.76z"/>
						</g>
					</g>
					<g>
						<g>
							<path class="st1" d="M67.79,147.47l11.23,6.48c0.42,0.24,0.94-0.06,0.94-0.54V93.6c0-0.22-0.12-0.43-0.31-0.54l-11.23-6.48
								c-0.42-0.24-0.94,0.06-0.94,0.54v59.81C67.47,147.16,67.59,147.36,67.79,147.47z"/>
						</g>
					</g>
				</g>
				<g>
					<g>
						<g>
							<path class="st1" d="M60.9,76.74l-11.23-6.48c-0.42-0.24-0.42-0.85,0-1.09l54.4-31.32c0.19-0.11,0.43-0.11,0.63,0l11.23,6.48
								c0.42,0.24,0.42,0.85,0,1.09l-54.4,31.32C61.34,76.85,61.1,76.85,60.9,76.74z"/>
						</g>
					</g>
					<g>
						<g>
							<path class="st1" d="M101.48,100.16l-11.23-6.48c-0.42-0.24-0.42-0.85,0-1.09l54.4-31.32c0.19-0.11,0.43-0.11,0.63,0
								l11.23,6.48c0.42,0.24,0.42,0.85,0,1.09l-54.4,31.32C101.91,100.27,101.67,100.27,101.48,100.16z"/>
						</g>
					</g>
					<g>
						<g>
							<path class="st1" d="M81.19,88.45l-11.23-6.48c-0.42-0.24-0.42-0.85,0-1.09l54.4-31.32c0.19-0.11,0.43-0.11,0.63,0
								l11.23,6.48c0.42,0.24,0.42,0.85,0,1.09l-54.4,31.32C81.62,88.56,81.38,88.56,81.19,88.45z"/>
						</g>
					</g>
				</g>
			</g>
			<g>
				<g>
					<path class="st1" d="M103.98,106.71v12.24c0,0.48,0.52,0.79,0.94,0.54l10.6-6.12c0.42-0.24,0.42-0.85,0-1.09l-10.6-6.12
						C104.5,105.92,103.98,106.22,103.98,106.71z"/>
				</g>
			</g>
			<g>
				<g>
					<path class="st1" d="M104.92,142.91l30.89-17.83c0.42-0.24,0.42-0.85,0-1.09l-11.23-6.48c-0.19-0.11-0.43-0.11-0.63,0
						l-19.66,11.35c-0.19,0.11-0.31,0.32-0.31,0.54v12.97C103.98,142.85,104.5,143.16,104.92,142.91z"/>
				</g>
			</g>
			<g>
				<g>
					<path class="st1" d="M144.24,129.22l-39.94,23.06c-0.19,0.11-0.31,0.32-0.31,0.54v12.97c0,0.48,0.52,0.79,0.94,0.54
						l51.17-29.55c0.42-0.24,0.42-0.85,0-1.09l-11.23-6.48C144.67,129.11,144.43,129.11,144.24,129.22z"/>
				</g>
			</g>
		</g>
	</g>
</g>
</svg>
